<svg width="98" height="98" viewBox="0 0 98 98" fill="none" xmlns="http://www.w3.org/2000/svg">
<path d="M26.5656 41.7366L11.6342 18.7924C20.937 7.22255 34.8912 0.851323 49.158 0.792692C57.425 0.734061 65.8678 2.84478 73.5485 7.28118C82.0304 12.2062 88.4798 19.281 92.584 27.4111L52.4609 25.3004C41.106 24.6359 30.2984 31.0267 26.5656 41.7366ZM32.9954 49.2609C32.9954 58.2901 40.3047 65.5994 49.3339 65.5994C58.3631 65.5994 65.6724 58.2901 65.6724 49.2609C65.6724 40.2318 58.3631 32.9224 49.3339 32.9224C40.3047 32.9224 32.9954 40.2122 32.9954 49.2609ZM94.5384 31.828L67.2359 33.2351C74.6429 41.893 74.7602 54.3814 68.5258 63.9578L46.6173 97.651C55.7051 98.1396 65.0666 96.1462 73.5485 91.2212C94.5384 79.1041 103.04 53.6973 94.5384 31.828ZM26.9955 58.5637L8.7613 22.7011C3.77767 30.3231 0.865662 39.4696 0.865662 49.2609C0.865662 73.4951 18.6113 93.5664 41.8096 97.1233L54.2589 72.7329C43.0018 74.8436 32.1355 68.6678 26.9955 58.5637Z" fill="#FFA588"/>
</svg>
