<svg width="88" height="88" viewBox="0 0 88 88" fill="none" xmlns="http://www.w3.org/2000/svg">
<path d="M43.8174 21.5842C31.4247 21.5842 21.4287 31.5801 21.4287 43.9728C21.4287 56.3655 31.4247 66.3615 43.8174 66.3615C56.2101 66.3615 66.206 56.3655 66.206 43.9728C66.206 31.5801 56.2101 21.5842 43.8174 21.5842ZM43.8174 58.5284C35.8089 58.5284 29.2618 52.0008 29.2618 43.9728C29.2618 35.9449 35.7894 29.4173 43.8174 29.4173C51.8453 29.4173 58.3729 35.9449 58.3729 43.9728C58.3729 52.0008 51.8259 58.5284 43.8174 58.5284ZM72.3439 20.6683C72.3439 23.5717 70.0057 25.8904 67.1219 25.8904C64.2185 25.8904 61.8998 23.5522 61.8998 20.6683C61.8998 17.7845 64.238 15.4463 67.1219 15.4463C70.0057 15.4463 72.3439 17.7845 72.3439 20.6683ZM87.1723 25.9684C86.841 18.9731 85.2432 12.7768 80.1186 7.67162C75.0134 2.56646 68.8171 0.968665 61.8218 0.617929C54.6123 0.208737 33.003 0.208737 25.7934 0.617929C18.8177 0.94918 12.6213 2.54698 7.4967 7.65214C2.37205 12.7573 0.793739 18.9536 0.443003 25.9489C0.0338104 33.1585 0.0338104 54.7677 0.443003 61.9773C0.774253 68.9725 2.37205 75.1689 7.4967 80.274C12.6213 85.3792 18.7982 86.977 25.7934 87.3277C33.003 87.7369 54.6123 87.7369 61.8218 87.3277C68.8171 86.9965 75.0134 85.3987 80.1186 80.274C85.2237 75.1689 86.8215 68.9725 87.1723 61.9773C87.5815 54.7677 87.5815 33.1779 87.1723 25.9684ZM77.8583 69.713C76.3384 73.5321 73.3961 76.4744 69.5575 78.0137C63.8093 80.2935 50.1696 79.7674 43.8174 79.7674C37.4652 79.7674 23.8059 80.274 18.0772 78.0137C14.2581 76.4939 11.3158 73.5516 9.77648 69.713C7.4967 63.9648 8.0228 50.325 8.0228 43.9728C8.0228 37.6206 7.51618 23.9614 9.77648 18.2327C11.2963 14.4136 14.2386 11.4713 18.0772 9.93192C23.8254 7.65214 37.4652 8.17824 43.8174 8.17824C50.1696 8.17824 63.8288 7.67162 69.5575 9.93192C73.3766 11.4518 76.3189 14.3941 77.8583 18.2327C80.1381 23.9809 79.612 37.6206 79.612 43.9728C79.612 50.325 80.1381 63.9843 77.8583 69.713Z" fill="#FFA588"/>
</svg>
