<svg width="97" height="98" viewBox="0 0 97 98" fill="none" xmlns="http://www.w3.org/2000/svg">
<path d="M32.103 59.0768C24.5647 59.5616 17.7235 62.4326 13.8417 72.6614C13.4001 73.8282 12.3385 74.5366 11.1003 74.5366C9.01285 74.5366 2.55874 69.3376 0.719269 68.0825C0.721148 83.5554 7.84791 97.1551 24.7714 97.1551C39.0249 97.1551 48.8217 88.931 48.8217 74.5723C48.8217 73.9879 48.6995 73.4299 48.6394 72.8568L32.103 59.0768ZM86.7553 0.954102C83.9068 0.954102 81.2369 2.21486 79.2001 4.04493C40.793 38.3541 36.7965 39.1602 36.7965 49.2594C36.7965 51.8335 37.4072 54.2874 38.4368 56.5308L50.4281 66.523C51.7828 66.8612 53.1789 67.0923 54.635 67.0923C66.3051 67.0923 73.0692 58.5488 94.3104 18.9054C95.6971 16.2091 96.9222 13.2968 96.9222 10.2642C96.9222 4.8322 92.0369 0.954102 86.7553 0.954102Z" fill="#FFA588"/>
</svg>
